General

Complete name                    : The Girl Next Door{2004}DVDRip.aaaevilacharya.mkv
Format                           : Matroska
File size                        : 690 MiB
Duration                         : 1h 49mn
Overall bit rate                 : 882 Kbps
Movie name                       : aaaevilacharya{TiRG}


Video
ID                               : 1
Format                           : MPEG-4 Visual
Format profile                   : Advanced Simple@L5
Format settings, BVOP            : Yes
Format settings, QPel            : No
Format settings, GMC             : No warppoints
Format settings, Matrix          : Default (H.263)
Codec ID                         : XVID
Codec ID/Hint                    : XviD
Duration                         : 1h 49mn
Bit rate                         : 736 Kbps
Width                            : 640 pixels
Height                           : 336 pixels
Display aspect ratio             : 2.35:1
Original display aspect ratio    : 5.861
Frame rate                       : 23.976 fps
Color space                      : YUV
Chroma subsampling               : 4:2:0
Bit depth                        : 8 bits
Scan type                        : Progressive
Bits/(Pixel*Frame)               : 0.143
Stream size                      : 576 MiB (83%)
Title                            : aaaevilacharya{TiRG}
Language                         : English

Audio
ID                               : 2
Format                           : MPEG Audio
Format version                   : Version 1
Format profile                   : Layer 3
Mode                             : Joint stereo
Mode extension                   : MS Stereo
Codec ID                         : A_MPEG/L3
Codec ID/Hint                    : MP3
Duration                         : 1h 49mn
Bit rate mode                    : Variable
Bit rate                         : 128 Kbps
Channel(s)                       : 2 channels
Sampling rate                    : 48.0 KHz
Stream size                      : 101 MiB (15%)
Title                            : aaaevilacharya{TiRG}
Writing library                  : LAME3.90.

Language                         : English


SCREENSHOTS
 
http://img835.imageshack.us/img835/7067/thegirlnextdooruncovere.jpg 
http://img140.imageshack.us/img140/4341/thegirlnextdoor2004dvdr.jpg 
http://img189.imageshack.us/img189/4876/thegirlnextdoor2004dvdrl.jpg 
http://img252.imageshack.us/img252/4341/thegirlnextdoor2004dvdr.jpg 
http://img841.imageshack.us/img841/4341/thegirlnextdoor2004dvdr.jpg 
http://img560.imageshack.us/img560/4341/thegirlnextdoor2004dvdr.jpg 
http://img145.imageshack.us/img145/4341/thegirlnextdoor2004dvdr.jpg 
http://img33.imageshack.us/img33/4341/thegirlnextdoor2004dvdr.jpg 
http://img716.imageshack.us/img716/4341/thegirlnextdoor2004dvdr.jpg 
http://img141.imageshack.us/img141/4341/thegirlnextdoor2004dvdr.jpg 
http://img16.imageshack.us/img16/4341/thegirlnextdoor2004dvdr.jpg 
http://img407.imageshack.us/img407/5183/thegirlnextdoor2004dvdrv.jpg 
http://img833.imageshack.us/img833/4341/thegirlnextdoor2004dvdr.jpg 
http://img51.imageshack.us/img51/6060/thegirlnextdoor2004dvdry.jpg
